<mxfile host="app.diagrams.net" modified="2024-03-23T17:23:18.211Z" agent="Mozilla/5.0 (X11; Linux x86_64) AppleWebKit/537.36 (KHTML, like Gecko) Chrome/118.0.5993.675 YaBrowser/23.11.1.675 (beta) Yowser/2.5 Safari/537.36" version="24.1.0" etag="y8zOIClbfYudjeWyN9XO" type="github">
  <diagram name="Страница — 1" id="rwgA5BPk8sBzmZya6ONt">
    <mxGraphModel>
      <root>
        <mxCell id="0" />
        <mxCell id="1" parent="0" />
      </root>
    </mxGraphModel>
  </diagram>
</mxfile>
